<svg xmlns="http://www.w3.org/2000/svg" viewBox="0 0 60 60" fill="none">
  <defs>
    <linearGradient id="bg" x1="0" y1="0" x2="60" y2="60">
      <stop offset="0%" stop-color="#7C3AED"/>
      <stop offset="100%" stop-color="#4C1D95"/>
    </linearGradient>
  </defs>
  <rect width="60" height="60" rx="13" fill="url(#bg)"/>
  <path d="M16 31c-0.7 0-1.3 0.6-1.3 1.3v10.7c0 0.7 0.6 1.5 1.3 1.5h9.7l4.3 4 4.3-4h9.7c0.7 0 1.3-0.8 1.3-1.5V32.3c0-0.7-0.6-1.3-1.3-1.3H16z" fill="#fff" opacity="0.95"/>
  <path d="M20 36h20v2H20zM20 31h14v2H20zM20 41h16v2H20z" fill="#7C3AED" opacity="0.7"/>
  <circle cx="13" cy="15" r="4" fill="#A78BFA" opacity="0.4"/>
  <circle cx="47" cy="12" r="3" fill="#C4B5FD" opacity="0.3"/>
  <circle cx="49" cy="25" r="2.5" fill="#DDD6FE" opacity="0.25"/>
</svg>